{
  "accessors": [
    {
      "bufferView": 2,
      "componentType": 5126,
      "count": 2760,
      "max": [
        1339.09912109375,
        625.0374755859375,
        295.1720886230469
      ],
      "min": [
        -269.1158142089844,
        -215.7917022705078,
        1.1725000143051147
      ],
      "type": "VEC3"
    },
    {
      "bufferView": 2,
      "byteOffset": 33120,
      "componentType": 5126,
      "count": 2760,
      "max": [
        0.9991374015808105,
        0.9996606707572937,
        0.9972903728485107
      ],
      "min": [
        -0.999284029006958,
        -0.9975913166999817,
        -1.0
      ],
      "type": "VEC3"
    },
    {
      "bufferView": 1,
      "componentType": 5126,
      "count": 2760,
      "max": [
        0.9894999861717224,
        0.9993000030517578
      ],
      "min": [
        0.0006000000284984708,
        0.0005000000237487257
      ],
      "type": "VEC2"
    },
    {
      "bufferView": 0,
      "componentType": 5125,
      "count": 3216,
      "type": "SCALAR"
    },
    {
      "bufferView": 2,
      "byteOffset": 66240,
      "componentType": 5126,
      "count": 1251,
      "max": [
        2558.44482421875,
        1294.156982421875,
        464.2536926269531
      ],
      "min": [
        -982.5031127929688,
        -1358.801025390625,
        -203.7071075439453
      ],
      "type": "VEC3"
    },
    {
      "bufferView": 2,
      "byteOffset": 81252,
      "componentType": 5126,
      "count": 1251,
      "max": [
        0.8681017756462097,
        0.8952793478965759,
        0.9999127388000488
      ],
      "min": [
        -0.7698114514350891,
        -0.7890817523002625,
        0.40129077434539795
      ],
      "type": "VEC3"
    },
    {
      "bufferView": 1,
      "byteOffset": 22080,
      "componentType": 5126,
      "count": 1251,
      "max": [
        0.9994000196456909,
        0.7268999814987183
      ],
      "min": [
        0.0006000000284984708,
        0.000699999975040555
      ],
      "type": "VEC2"
    },
    {
      "bufferView": 0,
      "byteOffset": 12864,
      "componentType": 5125,
      "count": 1251,
      "type": "SCALAR"
    },
    {
      "bufferView": 2,
      "byteOffset": 96264,
      "componentType": 5126,
      "count": 4,
      "max": [
        3023.01513671875,
        108.4739990234375,
        1338.868408203125
      ],
      "min": [
        23.03580093383789,
        -2643.00341796875,
        -170.51950073242188
      ],
      "type": "VEC3"
    },
    {
      "bufferView": 2,
      "byteOffset": 96312,
      "componentType": 5126,
      "count": 4,
      "max": [
        -0.6587067246437073,
        0.7285074591636658,
        -0.18810191750526428
      ],
      "min": [
        -0.6587067246437073,
        0.7285074591636658,
        -0.18810191750526428
      ],
      "type": "VEC3"
    },
    {
      "bufferView": 1,
      "byteOffset": 32088,
      "componentType": 5126,
      "count": 4,
      "max": [
        1.0,
        1.0
      ],
      "min": [
        0.0,
        0.0
      ],
      "type": "VEC2"
    },
    {
      "bufferView": 0,
      "byteOffset": 17868,
      "componentType": 5125,
      "count": 6,
      "type": "SCALAR"
    },
    {
      "bufferView": 2,
      "byteOffset": 96360,
      "componentType": 5126,
      "count": 1359,
      "max": [
        390.45849609375,
        2.0815999507904053,
        559.344970703125
      ],
      "min": [
        49.42380142211914,
        -325.0710144042969,
        -3.9528000354766846
      ],
      "type": "VEC3"
    },
    {
      "bufferView": 2,
      "byteOffset": 112668,
      "componentType": 5126,
      "count": 1359,
      "max": [
        0.9966669678688049,
        0.9951086640357971,
        1.0
      ],
      "min": [
        -0.9966669678688049,
        -0.9951086640357971,
        -1.0
      ],
      "type": "VEC3"
    },
    {
      "bufferView": 1,
      "byteOffset": 32120,
      "componentType": 5126,
      "count": 1359,
      "max": [
        23.519100189208984,
        1.660599946975708
      ],
      "min": [
        -1.2892999649047852,
        -16.541400909423828
      ],
      "type": "VEC2"
    },
    {
      "bufferView": 0,
      "byteOffset": 17892,
      "componentType": 5125,
      "count": 2340,
      "type": "SCALAR"
    },
    {
      "bufferView": 2,
      "byteOffset": 128976,
      "componentType": 5126,
      "count": 3246,
      "max": [
        906.6264038085938,
        232.73739624023438,
        582.526123046875
      ],
      "min": [
        486.1741943359375,
        32.31850051879883,
        118.6083984375
      ],
      "type": "VEC3"
    },
    {
      "bufferView": 2,
      "byteOffset": 167928,
      "componentType": 5126,
      "count": 3246,
      "max": [
        0.9935473799705505,
        0.9864137768745422,
        0.9997979998588562
      ],
      "min": [
        -0.9782711863517761,
        -0.9935228228569031,
        -0.9997990727424622
      ],
      "type": "VEC3"
    },
    {
      "bufferView": 1,
      "byteOffset": 42992,
      "componentType": 5126,
      "count": 3246,
      "max": [
        0.9993000030517578,
        0.9972000122070313
      ],
      "min": [
        0.0005000000237487257,
        0.0005000000237487257
      ],
      "type": "VEC2"
    },
    {
      "bufferView": 0,
      "byteOffset": 27252,
      "componentType": 5125,
      "count": 7536,
      "type": "SCALAR"
    },
    {
      "bufferView": 2,
      "byteOffset": 206880,
      "componentType": 5126,
      "count": 3246,
      "max": [
        521.9490966796875,
        62.153900146484375,
        628.519775390625
      ],
      "min": [
        66.93920135498047,
        -62.85419845581055,
        157.45899963378906
      ],
      "type": "VEC3"
    },
    {
      "bufferView": 2,
      "byteOffset": 245832,
      "componentType": 5126,
      "count": 3246,
      "max": [
        0.9659289121627808,
        0.9927781224250793,
        1.0
      ],
      "min": [
        -0.9659289121627808,
        -0.9968857765197754,
        -1.0
      ],
      "type": "VEC3"
    },
    {
      "bufferView": 1,
      "byteOffset": 68960,
      "componentType": 5126,
      "count": 3246,
      "max": [
        0.9993000030517578,
        0.9972000122070313
      ],
      "min": [
        0.0005000000237487257,
        0.0005000000237487257
      ],
      "type": "VEC2"
    },
    {
      "bufferView": 0,
      "byteOffset": 57396,
      "componentType": 5125,
      "count": 7536,
      "type": "SCALAR"
    },
    {
      "bufferView": 2,
      "byteOffset": 284784,
      "componentType": 5126,
      "count": 1006,
      "max": [
        624.9575805664063,
        723.734619140625,
        88.58000183105469
      ],
      "min": [
        -419.2218017578125,
        182.7653045654297,
        -42.22140121459961
      ],
      "type": "VEC3"
    },
    {
      "bufferView": 2,
      "byteOffset": 296856,
      "componentType": 5126,
      "count": 1006,
      "max": [
        0.9968622326850891,
        0.9989702105522156,
        0.9999886751174927
      ],
      "min": [
        -0.9911380410194397,
        -0.9996681809425354,
        -0.9999886751174927
      ],
      "type": "VEC3"
    },
    {
      "bufferView": 1,
      "byteOffset": 94928,
      "componentType": 5126,
      "count": 1006,
      "max": [
        0.996399998664856,
        0.9994000196456909
      ],
      "min": [
        0.000699999975040555,
        0.0005000000237487257
      ],
      "type": "VEC2"
    },
    {
      "bufferView": 0,
      "byteOffset": 87540,
      "componentType": 5125,
      "count": 1776,
      "type": "SCALAR"
    },
    {
      "bufferView": 2,
      "byteOffset": 308928,
      "componentType": 5126,
      "count": 176,
      "max": [
        221.043701171875,
        719.236572265625,
        52.382598876953125
      ],
      "min": [
        -229.42359924316406,
        59.73460006713867,
        -34.510101318359375
      ],
      "type": "VEC3"
    },
    {
      "bufferView": 2,
      "byteOffset": 311040,
      "componentType": 5126,
      "count": 176,
      "max": [
        0.9801497459411621,
        0.9876024127006531,
        0.9631373286247253
      ],
      "min": [
        -0.969082236289978,
        -0.942866861820221,
        -0.27980443835258484
      ],
      "type": "VEC3"
    },
    {
      "bufferView": 1,
      "byteOffset": 102976,
      "componentType": 5126,
      "count": 176,
      "max": [
        0.9994999766349792,
        0.9271000027656555
      ],
      "min": [
        0.000699999975040555,
        0.0005000000237487257
      ],
      "type": "VEC2"
    },
    {
      "bufferView": 0,
      "byteOffset": 94644,
      "componentType": 5125,
      "count": 378,
      "type": "SCALAR"
    },
    {
      "bufferView": 2,
      "byteOffset": 313152,
      "componentType": 5126,
      "count": 1200,
      "max": [
        356.6065979003906,
        568.444580078125,
        61.75429916381836
      ],
      "min": [
        270.0740966796875,
        393.0426025390625,
        -4.713900089263916
      ],
      "type": "VEC3"
    },
    {
      "bufferView": 2,
      "byteOffset": 327552,
      "componentType": 5126,
      "count": 1200,
      "max": [
        0.9892245531082153,
        0.9914361834526062,
        0.9976620078086853
      ],
      "min": [
        -0.9990164637565613,
        -0.9914361834526062,
        -0.9976611137390137
      ],
      "type": "VEC3"
    },
    {
      "bufferView": 1,
      "byteOffset": 104384,
      "componentType": 5126,
      "count": 1200,
      "max": [
        0.9994000196456909,
        0.9438999891281128
      ],
      "min": [
        0.000699999975040555,
        0.0005000000237487257
      ],
      "type": "VEC2"
    },
    {
      "bufferView": 0,
      "byteOffset": 96156,
      "componentType": 5125,
      "count": 2400,
      "type": "SCALAR"
    },
    {
      "bufferView": 2,
      "byteOffset": 341952,
      "componentType": 5126,
      "count": 4812,
      "max": [
        256.069091796875,
        728.9293823242188,
        41.082698822021484
      ],
      "min": [
        -374.0664978027344,
        410.6059875488281,
        -27.10540008544922
      ],
      "type": "VEC3"
    },
    {
      "bufferView": 2,
      "byteOffset": 399696,
      "componentType": 5126,
      "count": 4812,
      "max": [
        0.9996946454048157,
        0.998636782169342,
        0.9995983242988586
      ],
      "min": [
        -0.9968878030776978,
        -0.996420681476593,
        -0.9997178912162781
      ],
      "type": "VEC3"
    },
    {
      "bufferView": 1,
      "byteOffset": 113984,
      "componentType": 5126,
      "count": 4812,
      "max": [
        0.9994999766349792,
        0.9943000078201294
      ],
      "min": [
        0.0005000000237487257,
        0.000699999975040555
      ],
      "type": "VEC2"
    },
    {
      "bufferView": 0,
      "byteOffset": 105756,
      "componentType": 5125,
      "count": 4812,
      "type": "SCALAR"
    },
    {
      "bufferView": 2,
      "byteOffset": 457440,
      "componentType": 5126,
      "count": 1359,
      "max": [
        862.932373046875,
        141.9678955078125,
        505.977294921875
      ],
      "min": [
        589.6522827148438,
        -136.11199951171875,
        18.48509979248047
      ],
      "type": "VEC3"
    },
    {
      "bufferView": 2,
      "byteOffset": 473748,
      "componentType": 5126,
      "count": 1359,
      "max": [
        0.9990489482879639,
        0.9990489482879639,
        1.0
      ],
      "min": [
        -0.9990489482879639,
        -0.9990489482879639,
        -1.0
      ],
      "type": "VEC3"
    },
    {
      "bufferView": 1,
      "byteOffset": 152480,
      "componentType": 5126,
      "count": 1359,
      "max": [
        23.519100189208984,
        1.660599946975708
      ],
      "min": [
        -1.2892999649047852,
        -16.541400909423828
      ],
      "type": "VEC2"
    },
    {
      "bufferView": 0,
      "byteOffset": 125004,
      "componentType": 5125,
      "count": 2340,
      "type": "SCALAR"
    }
  ],
  "asset": {
    "extras": {
      "author": "ruslans3d (https://sketchfab.com/ruslans3d)",
      "license": "CC-BY-4.0 (http://creativecommons.org/licenses/by/4.0/)",
      "source": "https://sketchfab.com/3d-models/papercraft-windmills-beef0d8106d94529a727f5a14ccef621",
      "title": "Papercraft Windmills"
    },
    "generator": "Sketchfab-12.64.0",
    "version": "2.0"
  },
  "bufferViews": [
    {
      "buffer": 0,
      "byteLength": 134364,
      "name": "floatBufferViews",
      "target": 34963
    },
    {
      "buffer": 0,
      "byteLength": 163352,
      "byteOffset": 134364,
      "byteStride": 8,
      "name": "floatBufferViews",
      "target": 34962
    },
    {
      "buffer": 0,
      "byteLength": 490056,
      "byteOffset": 297716,
      "byteStride": 12,
      "name": "floatBufferViews",
      "target": 34962
    }
  ],
  "buffers": [
    {
      "byteLength": 787772,
      "uri": "scene.bin"
    }
  ],
  "extensionsUsed": [
    "KHR_materials_unlit"
  ],
  "images": [
    {
      "uri": "textures/01___Defaultgggg_baseColor.jpeg"
    },
    {
      "uri": "textures/01___Defaultgggghfffdddhfffhffff_baseColor.png"
    },
    {
      "uri": "textures/01___Defaultgggghfffdddhfffhffff_emissive.png"
    },
    {
      "uri": "textures/01___Defaultgggghfffhfffhffff_baseColor.png"
    },
    {
      "uri": "textures/01___Defaultgggghfffhfffhffff_emissive.png"
    },
    {
      "uri": "textures/01___Defaultgggghhffffdddffhffff_baseColor.jpeg"
    },
    {
      "uri": "textures/01___Defaultgggghhfffffffdddffhffff_baseColor.jpeg"
    },
    {
      "uri": "textures/01___Defaultgggghhffffffffffdddffhffff_baseColor.jpeg"
    },
    {
      "uri": "textures/01___Defaultgggghhffffffhffff_baseColor.jpeg"
    },
    {
      "uri": "textures/01___Defaultgggghhfffhffff_baseColor.jpeg"
    },
    {
      "uri": "textures/01___Defaultgggghhh_baseColor.jpeg"
    },
    {
      "uri": "textures/01___Defaultgggghhhffff_baseColor.jpeg"
    },
    {
      "uri": "textures/13___Default_baseColor.jpeg"
    }
  ],
  "materials": [
    {
      "doubleSided": true,
      "emissiveTexture": {
        "index": 0
      },
      "extensions": {
        "KHR_materials_unlit": {}
      },
      "name": "01___Defaultgggg",
      "pbrMetallicRoughness": {
        "baseColorTexture": {
          "index": 0
        },
        "metallicFactor": 0.0
      }
    },
    {
      "alphaMode": "BLEND",
      "doubleSided": true,
      "emissiveTexture": {
        "index": 2
      },
      "extensions": {
        "KHR_materials_unlit": {}
      },
      "name": "01___Defaultgggghfffdddhfffhffff",
      "pbrMetallicRoughness": {
        "baseColorTexture": {
          "index": 1
        },
        "metallicFactor": 0.0
      }
    },
    {
      "alphaMode": "BLEND",
      "doubleSided": true,
      "emissiveTexture": {
        "index": 4
      },
      "extensions": {
        "KHR_materials_unlit": {}
      },
      "name": "01___Defaultgggghfffhfffhffff",
      "pbrMetallicRoughness": {
        "baseColorTexture": {
          "index": 3
        },
        "metallicFactor": 0.0
      }
    },
    {
      "doubleSided": true,
      "emissiveTexture": {
        "index": 5
      },
      "extensions": {
        "KHR_materials_unlit": {}
      },
      "name": "01___Defaultgggghhffffdddffhffff",
      "pbrMetallicRoughness": {
        "baseColorTexture": {
          "index": 5
        },
        "metallicFactor": 0.0
      }
    },
    {
      "doubleSided": true,
      "emissiveTexture": {
        "index": 6
      },
      "extensions": {
        "KHR_materials_unlit": {}
      },
      "name": "01___Defaultgggghhfffffffdddffhffff",
      "pbrMetallicRoughness": {
        "baseColorTexture": {
          "index": 6
        },
        "metallicFactor": 0.0
      }
    },
    {
      "doubleSided": true,
      "emissiveTexture": {
        "index": 7
      },
      "extensions": {
        "KHR_materials_unlit": {}
      },
      "name": "01___Defaultgggghhffffffffffdddffhffff",
      "pbrMetallicRoughness": {
        "baseColorTexture": {
          "index": 7
        },
        "metallicFactor": 0.0
      }
    },
    {
      "doubleSided": true,
      "emissiveTexture": {
        "index": 8
      },
      "extensions": {
        "KHR_materials_unlit": {}
      },
      "name": "01___Defaultgggghhffffffhffff",
      "pbrMetallicRoughness": {
        "baseColorTexture": {
          "index": 8
        },
        "metallicFactor": 0.0
      }
    },
    {
      "doubleSided": true,
      "emissiveTexture": {
        "index": 9
      },
      "extensions": {
        "KHR_materials_unlit": {}
      },
      "name": "01___Defaultgggghhfffhffff",
      "pbrMetallicRoughness": {
        "baseColorTexture": {
          "index": 9
        },
        "metallicFactor": 0.0
      }
    },
    {
      "doubleSided": true,
      "emissiveTexture": {
        "index": 10
      },
      "extensions": {
        "KHR_materials_unlit": {}
      },
      "name": "01___Defaultgggghhh",
      "pbrMetallicRoughness": {
        "baseColorTexture": {
          "index": 10
        },
        "metallicFactor": 0.0
      }
    },
    {
      "doubleSided": true,
      "emissiveTexture": {
        "index": 11
      },
      "extensions": {
        "KHR_materials_unlit": {}
      },
      "name": "01___Defaultgggghhhffff",
      "pbrMetallicRoughness": {
        "baseColorTexture": {
          "index": 11
        },
        "metallicFactor": 0.0
      }
    },
    {
      "doubleSided": true,
      "emissiveTexture": {
        "index": 12
      },
      "extensions": {
        "KHR_materials_unlit": {}
      },
      "name": "13___Default",
      "pbrMetallicRoughness": {
        "baseColorTexture": {
          "index": 12
        },
        "metallicFactor": 0.0
      }
    }
  ],
  "meshes": [
    {
      "name": "Object_0",
      "primitives": [
        {
          "attributes": {
            "NORMAL": 1,
            "POSITION": 0,
            "TEXCOORD_0": 2
          },
          "indices": 3,
          "material": 7,
          "mode": 4
        }
      ]
    },
    {
      "name": "Object_1",
      "primitives": [
        {
          "attributes": {
            "NORMAL": 5,
            "POSITION": 4,
            "TEXCOORD_0": 6
          },
          "indices": 7,
          "material": 9,
          "mode": 4
        }
      ]
    },
    {
      "name": "Object_2",
      "primitives": [
        {
          "attributes": {
            "NORMAL": 9,
            "POSITION": 8,
            "TEXCOORD_0": 10
          },
          "indices": 11,
          "material": 10,
          "mode": 4
        }
      ]
    },
    {
      "name": "Object_3",
      "primitives": [
        {
          "attributes": {
            "NORMAL": 13,
            "POSITION": 12,
            "TEXCOORD_0": 14
          },
          "indices": 15,
          "material": 0,
          "mode": 4
        }
      ]
    },
    {
      "name": "Object_4",
      "primitives": [
        {
          "attributes": {
            "NORMAL": 17,
            "POSITION": 16,
            "TEXCOORD_0": 18
          },
          "indices": 19,
          "material": 1,
          "mode": 4
        }
      ]
    },
    {
      "name": "Object_5",
      "primitives": [
        {
          "attributes": {
            "NORMAL": 21,
            "POSITION": 20,
            "TEXCOORD_0": 22
          },
          "indices": 23,
          "material": 2,
          "mode": 4
        }
      ]
    },
    {
      "name": "Object_6",
      "primitives": [
        {
          "attributes": {
            "NORMAL": 25,
            "POSITION": 24,
            "TEXCOORD_0": 26
          },
          "indices": 27,
          "material": 3,
          "mode": 4
        }
      ]
    },
    {
      "name": "Object_7",
      "primitives": [
        {
          "attributes": {
            "NORMAL": 29,
            "POSITION": 28,
            "TEXCOORD_0": 30
          },
          "indices": 31,
          "material": 4,
          "mode": 4
        }
      ]
    },
    {
      "name": "Object_8",
      "primitives": [
        {
          "attributes": {
            "NORMAL": 33,
            "POSITION": 32,
            "TEXCOORD_0": 34
          },
          "indices": 35,
          "material": 5,
          "mode": 4
        }
      ]
    },
    {
      "name": "Object_9",
      "primitives": [
        {
          "attributes": {
            "NORMAL": 37,
            "POSITION": 36,
            "TEXCOORD_0": 38
          },
          "indices": 39,
          "material": 6,
          "mode": 4
        }
      ]
    },
    {
      "name": "Object_10",
      "primitives": [
        {
          "attributes": {
            "NORMAL": 41,
            "POSITION": 40,
            "TEXCOORD_0": 42
          },
          "indices": 43,
          "material": 8,
          "mode": 4
        }
      ]
    }
  ],
  "nodes": [
    {
      "children": [
        1
      ],
      "matrix": [
        1.0,
        0.0,
        0.0,
        0.0,
        0.0,
        2.220446049250313e-16,
        -1.0,
        0.0,
        0.0,
        1.0,
        2.220446049250313e-16,
        0.0,
        0.0,
        0.0,
        0.0,
        1.0
      ],
      "name": "Sketchfab_model"
    },
    {
      "children": [
        2,
        3,
        4,
        5,
        6,
        7,
        8,
        9,
        10,
        11,
        12
      ],
      "name": "Papercraft Windmills.obj.cleaner"
    },
    {
      "mesh": 0,
      "name": "Object_2"
    },
    {
      "mesh": 1,
      "name": "Object_3"
    },
    {
      "mesh": 2,
      "name": "Object_4"
    },
    {
      "mesh": 3,
      "name": "Object_5"
    },
    {
      "mesh": 4,
      "name": "Object_6"
    },
    {
      "mesh": 5,
      "name": "Object_7"
    },
    {
      "mesh": 6,
      "name": "Object_8"
    },
    {
      "mesh": 7,
      "name": "Object_9"
    },
    {
      "mesh": 8,
      "name": "Object_10"
    },
    {
      "mesh": 9,
      "name": "Object_11"
    },
    {
      "mesh": 10,
      "name": "Object_12"
    }
  ],
  "samplers": [
    {
      "magFilter": 9729,
      "minFilter": 9987,
      "wrapS": 10497,
      "wrapT": 10497
    }
  ],
  "scene": 0,
  "scenes": [
    {
      "name": "Sketchfab_Scene",
      "nodes": [
        0
      ]
    }
  ],
  "textures": [
    {
      "sampler": 0,
      "source": 0
    },
    {
      "sampler": 0,
      "source": 1
    },
    {
      "sampler": 0,
      "source": 2
    },
    {
      "sampler": 0,
      "source": 3
    },
    {
      "sampler": 0,
      "source": 4
    },
    {
      "sampler": 0,
      "source": 5
    },
    {
      "sampler": 0,
      "source": 6
    },
    {
      "sampler": 0,
      "source": 7
    },
    {
      "sampler": 0,
      "source": 8
    },
    {
      "sampler": 0,
      "source": 9
    },
    {
      "sampler": 0,
      "source": 10
    },
    {
      "sampler": 0,
      "source": 11
    },
    {
      "sampler": 0,
      "source": 12
    }
  ]
}
